<svg id="Capa_1" enable-background="new 0 0 524.243 524.243" height="512" viewBox="0 0 524.243 524.243" width="512" xmlns="http://www.w3.org/2000/svg"><path d="m226.547 19.193c25.591 25.591 25.591 67.082 0 92.673s-67.082 25.591-92.673 0-25.591-67.082 0-92.673c25.591-25.591 67.082-25.591 92.673 0"/><path d="m111.87 133.87c25.591 25.591 25.591 67.082 0 92.673s-67.082 25.591-92.673 0c-25.591-25.591-25.591-67.082 0-92.673s67.083-25.591 92.673 0"/><path d="m390.37 19.193c25.591 25.591 25.591 67.082 0 92.673s-67.082 25.591-92.673 0-25.591-67.082 0-92.673c25.592-25.591 67.083-25.591 92.673 0"/><path d="m505.046 133.87c25.591 25.591 25.591 67.082 0 92.673s-67.082 25.591-92.673 0-25.591-67.082 0-92.673 67.082-25.591 92.673 0"/><path d="m401.723 285.491c-6.255-4.288-10.095-9.855-11.423-16.558-7.679-39.052-31.725-71.209-67.721-90.535-37.276-19.998-83.624-20.014-120.932.016-35.98 19.31-60.026 51.467-67.705 90.519-1.328 6.703-5.167 12.271-11.423 16.558-43.435 29.709-64.377 80.504-54.666 132.579 9.455 50.683 49.755 92.119 100.294 103.094 9.503 2.048 19.022 3.072 28.445 3.072 18.638 0 36.94-3.984 53.995-11.855 7.231-3.328 15.854-3.328 23.054 0 25.709 11.871 54.219 14.911 82.472 8.767 50.523-10.959 90.823-52.395 100.278-103.094 9.71-52.059-11.232-102.854-54.668-132.563z"/></svg>